<mxfile host="app.diagrams.net" modified="2023-09-21T15:22:16.115Z" agent="Mozilla/5.0 (Macintosh; Intel Mac OS X 10_15_7) AppleWebKit/537.36 (KHTML, like Gecko) Chrome/116.0.0.0 Safari/537.36" etag="VJYhwg0kPHmi2BFlOCNs" version="21.8.0" type="device">
  <diagram name="Страница — 1" id="_kciAetemQ8gbdCivMLz">
    <mxGraphModel dx="506" dy="446" grid="1" gridSize="10" guides="1" tooltips="1" connect="1" arrows="1" fold="1" page="1" pageScale="1" pageWidth="1654" pageHeight="2336" math="0" shadow="0">
      <root>
        <mxCell id="0" />
        <mxCell id="1" parent="0" />
        <mxCell id="1TOLpVelZw8UjHg_SVkT-1" value="FileSystem" style="rounded=0;whiteSpace=wrap;html=1;" vertex="1" parent="1">
          <mxGeometry x="120" y="80" width="400" height="40" as="geometry" />
        </mxCell>
        <mxCell id="1TOLpVelZw8UjHg_SVkT-2" value="AllocatedSpace" style="rounded=0;whiteSpace=wrap;html=1;" vertex="1" parent="1">
          <mxGeometry x="120" y="140" width="120" height="40" as="geometry" />
        </mxCell>
        <mxCell id="1TOLpVelZw8UjHg_SVkT-3" value="FileAllocationMethod" style="rounded=0;whiteSpace=wrap;html=1;" vertex="1" parent="1">
          <mxGeometry x="260" y="140" width="120" height="40" as="geometry" />
        </mxCell>
        <mxCell id="1TOLpVelZw8UjHg_SVkT-4" value="FileSystemMetadata&lt;br&gt;" style="rounded=0;whiteSpace=wrap;html=1;" vertex="1" parent="1">
          <mxGeometry x="400" y="140" width="120" height="40" as="geometry" />
        </mxCell>
        <mxCell id="1TOLpVelZw8UjHg_SVkT-5" value="FileAllocationMethod&lt;br&gt;Metadata" style="rounded=0;whiteSpace=wrap;html=1;" vertex="1" parent="1">
          <mxGeometry x="260" y="200" width="120" height="40" as="geometry" />
        </mxCell>
        <mxCell id="1TOLpVelZw8UjHg_SVkT-10" value="" style="endArrow=classic;html=1;rounded=0;exitX=0.5;exitY=1;exitDx=0;exitDy=0;entryX=0.5;entryY=0;entryDx=0;entryDy=0;" edge="1" parent="1" source="1TOLpVelZw8UjHg_SVkT-1" target="1TOLpVelZw8UjHg_SVkT-3">
          <mxGeometry width="50" height="50" relative="1" as="geometry">
            <mxPoint x="240" y="210" as="sourcePoint" />
            <mxPoint x="290" y="160" as="targetPoint" />
          </mxGeometry>
        </mxCell>
        <mxCell id="1TOLpVelZw8UjHg_SVkT-12" value="" style="endArrow=classic;html=1;rounded=0;exitX=0.5;exitY=1;exitDx=0;exitDy=0;entryX=0.5;entryY=0;entryDx=0;entryDy=0;" edge="1" parent="1">
          <mxGeometry width="50" height="50" relative="1" as="geometry">
            <mxPoint x="179.76" y="120" as="sourcePoint" />
            <mxPoint x="179.76" y="140" as="targetPoint" />
          </mxGeometry>
        </mxCell>
        <mxCell id="1TOLpVelZw8UjHg_SVkT-13" value="" style="endArrow=classic;html=1;rounded=0;exitX=0.5;exitY=1;exitDx=0;exitDy=0;entryX=0.5;entryY=0;entryDx=0;entryDy=0;" edge="1" parent="1">
          <mxGeometry width="50" height="50" relative="1" as="geometry">
            <mxPoint x="459.76" y="120" as="sourcePoint" />
            <mxPoint x="459.76" y="140" as="targetPoint" />
          </mxGeometry>
        </mxCell>
        <mxCell id="1TOLpVelZw8UjHg_SVkT-14" value="" style="endArrow=classic;html=1;rounded=0;exitX=0.5;exitY=1;exitDx=0;exitDy=0;entryX=0.5;entryY=0;entryDx=0;entryDy=0;" edge="1" parent="1">
          <mxGeometry width="50" height="50" relative="1" as="geometry">
            <mxPoint x="319.76" y="180" as="sourcePoint" />
            <mxPoint x="319.76" y="200" as="targetPoint" />
          </mxGeometry>
        </mxCell>
      </root>
    </mxGraphModel>
  </diagram>
</mxfile>
